<svg width="239" height="164" viewBox="0 0 239 164" fill="none" xmlns="http://www.w3.org/2000/svg">
<g clip-path="url(#clip0_123_4)">
<path d="M150.867 9.60001L150.733 19.3333L148.867 10.8C147.8 6 146.733 2 146.467 1.60001C145.533 0.800003 135.933 2.53334 133.667 4C132.067 4.93333 132.067 6.26667 134.2 12.6667C135.533 16.8 136.2 20.5333 135.8 20.9333C135.4 21.3333 133.533 18.2667 131.4 14.1333C129.4 10 127.267 6.66667 126.733 6.66667C126.067 6.66667 123.133 7.86667 120.2 9.46667L114.867 12.1333L119.533 20.8C122.2 25.6 124.333 29.7333 124.333 30.1333C124.333 30.6667 121.533 27.6 118.2 23.4667C114.733 19.3333 111.4 16 110.733 16C108.867 16 100.333 22.8 100.333 24.2667C100.333 24.9333 105.8 32.5333 112.6 41.3333L124.867 57.3333L130.467 50.9333C133.533 47.3333 139.933 42.4 144.6 39.8667C152.6 35.4667 153.533 35.3333 167 35.3333C180.2 35.3333 181.533 35.6 189.933 39.7333C210.333 49.7333 219.533 70 213.133 91.0667C207.933 108.4 190.467 120.267 173.667 118C165.133 116.8 154.067 110.133 149.133 103.067C144.467 96.4 143 84.8 145.667 76.6667C147.8 70.4 155.667 61.4667 161.267 59.0667C166.333 57.0667 174.733 56.8 179.667 58.6667C181.533 59.3333 182.867 59.4667 182.467 58.8C182.067 58.2667 179 56.9333 175.667 56C160.6 51.7333 145.133 60.6667 139 76.9333C129.8 101.467 146.333 126.8 174.867 132C191 134.933 205.667 130.4 218.2 118.533C245.8 92.8 245.533 50.8 217.667 23.3333L211 16.6667L205.533 22.6667C199.933 28.8 199.933 28.2667 205.267 19.7333L208.333 14.6667L201.267 10.6667C197.533 8.53334 193.933 6.66667 193.4 6.66667C192.867 6.66667 190.467 10 188.067 14C185.8 18 183.667 21.0667 183.4 20.8C183.267 20.6667 184.2 17.3333 185.667 13.6C187.133 9.73334 188.333 6.13334 188.333 5.46667C188.333 4 175.533 0.800003 173.133 1.73334C172.2 2.13333 170.867 5.33334 170.333 8.8C168.733 20.2667 167 21.2 167.933 10.2667L168.733 0H159.8H151L150.867 9.60001Z" fill="#E45E35"/>
<path fill-rule="evenodd" clip-rule="evenodd" d="M113.231 124.722C103.806 129.938 89.2869 130.829 78.9704 126.884C74.0096 125.038 71.0546 124.454 57 124.281V110.854C57.7028 99.6483 59.1137 93.5436 64.6419 83.1818C70.4587 74.3093 74.011 70.122 80.8808 64.0976L107.277 44.3333C111.504 49.9675 116.634 57.0046 121 63.1477C119.478 67.4366 118.807 69.8823 118 74.3333C117.469 77.4376 117.25 79.1898 117 82.3333V87.3333C117.174 90.4596 117.397 92.2112 118 95.3333C118.543 98.0648 118.976 99.5978 120 102.333C121.024 105.069 121.984 106.968 123.5 109.833L125 112.333L125.901 113.656C122.362 118.168 117.752 122.313 113.231 124.722ZM95.4004 68.2325C97.3108 68.2325 99.8581 67.4691 101.004 66.5786C102.915 65.3063 102.151 65.0518 96.2919 65.0518C90.9426 65.0518 89.669 65.4335 90.6879 66.5786C91.4521 67.4691 93.6173 68.2325 95.4004 68.2325Z" fill="#E45E35"/>
<path d="M0.799229 100.864L47.4209 65.1658C73.1294 45.5116 94.1758 29.3337 94.1758 29.3337C94.5811 29.2885 98.245 33.9506 103 40.3178L75.3939 61.0879C68.2091 67.4188 64.4939 71.8192 58.4103 81.1432C52.6287 92.0323 51.1531 98.4477 50.418 110.223V124.333C45.8702 124.277 40.2111 124.262 33.0348 124.262H0L0.399614 112.63L0.799229 100.864Z" fill="#8BC460"/>
<path d="M13.6667 131.067C13.6667 136.933 20.7333 150.933 25.9333 155.333C28.2 157.2 32.4667 160 35.4 161.467C40.3333 164.133 40.6 164.133 39.6667 161.733C33.6667 147.867 32.7333 140.4 35.8 129.6C36.6 126.667 36.4667 126.667 25.1333 126.667H13.6667V131.067Z" fill="#8BC460"/>
</g>
<defs>
<clipPath id="clip0_123_4">
<rect width="238.734" height="163.501" fill="white"/>
</clipPath>
</defs>
</svg>
